<?xml version="1.0" standalone="no"?>
<!DOCTYPE svg PUBLIC "-//W3C//DTD SVG 20010904//EN"
 "http://www.w3.org/TR/2001/REC-SVG-20010904/DTD/svg10.dtd">
<svg version="1.0" xmlns="http://www.w3.org/2000/svg"
 width="1024.000000pt" height="1024.000000pt" viewBox="0 0 1024.000000 1024.000000"
 preserveAspectRatio="xMidYMid meet">
<metadata>
Created by potrace 1.15, written by Peter Selinger 2001-2017
</metadata>
<g transform="translate(0.000000,1024.000000) scale(0.100000,-0.100000)"
fill="#000000" stroke="none">
<path d="M0 5120 l0 -5120 5120 0 5120 0 0 5120 0 5120 -5120 0 -5120 0 0
-5120z m4358 1615 c82 -54 124 -155 102 -247 -17 -71 -54 -124 -109 -156 -40
-23 -57 -27 -126 -27 -69 0 -86 4 -125 27 -99 58 -142 173 -105 277 20 58 50
98 94 126 48 30 71 34 157 30 57 -3 80 -9 112 -30z m-706 -225 c2 -94 2 -175
0 -180 -2 -6 -154 -10 -417 -10 -370 0 -414 -2 -419 -16 -3 -9 -6 -530 -6
-1158 0 -627 0 -1149 0 -1159 0 -16 -15 -17 -207 -15 l-208 3 -5 1170 -5 1170
-420 5 -420 5 -3 178 -2 177 1054 0 1055 0 3 -170z m2503 -484 c227 -45 370
-147 464 -334 83 -165 92 -266 89 -1067 l-3 -650 -202 -3 c-189 -2 -203 -1
-203 15 0 10 0 290 0 623 -1 603 -5 702 -38 805 -60 192 -265 301 -491 261
-189 -33 -305 -129 -374 -312 -22 -58 -22 -66 -27 -724 l-5 -665 -202 -3
c-176 -2 -203 0 -203 13 0 8 0 463 0 1010 0 547 0 1002 0 1010 0 13 26 15 193
13 l192 -3 3 -152 c1 -84 6 -153 11 -153 5 0 20 19 34 43 57 94 199 206 311
243 126 42 323 55 451 30z m-1725 -1031 l0 -1025 -205 0 -205 0 0 1025 0 1025
205 0 205 0 0 -1025z m3048 1003 c6 -13 25 -70 43 -128 17 -58 40 -130 50
-160 9 -30 36 -116 59 -190 23 -74 55 -173 70 -220 15 -47 37 -119 50 -160 12
-41 30 -100 40 -130 18 -55 31 -96 129 -410 29 -91 59 -181 68 -200 18 -41 15
-46 63 110 18 58 45 143 60 190 15 47 38 119 50 160 13 41 35 113 50 160 15
47 42 132 60 190 17 58 45 146 61 195 16 50 33 104 38 120 22 74 96 309 125
395 l31 95 213 3 c245 3 231 11 186 -105 -14 -38 -34 -93 -44 -123 -10 -30
-33 -98 -53 -150 -19 -52 -49 -135 -67 -185 -17 -49 -40 -112 -50 -140 -10
-27 -33 -90 -50 -140 -17 -49 -40 -112 -50 -140 -10 -27 -33 -90 -50 -140 -17
-49 -35 -99 -40 -110 -5 -11 -25 -67 -45 -125 -47 -134 -122 -343 -175 -490
-23 -63 -46 -126 -50 -140 -14 -43 -80 -224 -89 -245 -56 -128 -130 -262 -175
-317 -116 -140 -236 -202 -444 -229 -87 -11 -270 -7 -293 6 -5 4 -9 78 -9 168
l0 162 108 0 c168 0 244 33 314 135 42 61 98 208 98 256 0 17 -9 53 -19 80
-27 69 -55 145 -91 249 -17 50 -35 99 -40 110 -5 11 -23 61 -40 110 -18 50
-50 140 -72 200 -22 61 -58 160 -80 220 -22 61 -48 133 -58 160 -10 28 -33 91
-50 140 -17 50 -35 99 -40 110 -5 11 -23 61 -40 110 -35 98 -88 245 -150 412
-22 60 -40 118 -40 131 l0 22 213 0 c212 0 214 0 225 -22z"/>
</g>
</svg>
